<?xml version="1.0" encoding="UTF-8"?>
<svg id="Calque_2" data-name="Calque 2" xmlns="http://www.w3.org/2000/svg" viewBox="0 0 128.91 149.37">
  <defs>
    <style>
      .cls-1, .cls-2 {
        stroke: #000;
        stroke-linecap: round;
        stroke-linejoin: round;
      }

      .cls-2 {
        fill: none;
        stroke-width: 3px;
      }
    </style>
  </defs>
  <g id="Calque_7" data-name="Calque 7">
    <g>
      <rect x="21.46" y="3.9" width="5.38" height="139.43"/>
      <path d="M26.34,4.4v138.43h-4.38V4.4h4.38M27.34,3.4h-6.38v140.43h6.38V3.4h0Z"/>
    </g>
    <g>
      <path d="M2.77,148.87c-1.25,0-2.27-1.02-2.27-2.27s1.02-2.27,2.27-2.27h42.77c1.25,0,2.27,1.02,2.27,2.27s-1.02,2.27-2.27,2.27H2.77Z"/>
      <path d="M45.53,144.83c.97,0,1.77.79,1.77,1.77s-.79,1.77-1.77,1.77H2.77c-.97,0-1.77-.79-1.77-1.77s.79-1.77,1.77-1.77h42.77M45.53,143.83H2.77c-1.53,0-2.77,1.24-2.77,2.77s1.24,2.77,2.77,2.77h42.77c1.53,0,2.77-1.24,2.77-2.77s-1.24-2.77-2.77-2.77h0Z"/>
    </g>
    <g>
      <path d="M3.4,6.31c-1.6,0-2.9-1.3-2.9-2.9S1.8.5,3.4.5h122.1c1.6,0,2.9,1.3,2.9,2.9s-1.3,2.9-2.9,2.9H3.4Z"/>
      <path d="M125.5,1c1.33,0,2.4,1.08,2.4,2.4s-1.08,2.4-2.4,2.4H3.4c-1.33,0-2.4-1.08-2.4-2.4S2.08,1,3.4,1h122.1M125.5,0H3.4C1.52,0,0,1.52,0,3.4s1.52,3.4,3.4,3.4h122.1c1.88,0,3.4-1.52,3.4-3.4s-1.52-3.4-3.4-3.4h0Z"/>
    </g>
    <g>
      <rect x="18.91" y="14.15" width="38.6" height="4.71" transform="translate(-.48 31.86) rotate(-45)"/>
      <path d="M50.19,1.91l2.62,2.62-26.58,26.58-2.62-2.62L50.19,1.91M50.19.49l-28,28,4.04,4.04L54.23,4.53,50.19.49h0Z"/>
    </g>
    <rect class="cls-1" x="107.84" y="1.96" width="5.36" height="29.11" rx="2.68" ry="2.68"/>
    <path class="cls-2" d="M124.05,39.13c1.17,2.17,1.84,4.66,1.84,7.3,0,8.49-6.88,15.37-15.37,15.37s-15.37-6.88-15.37-15.37,6.88-15.37,15.37-15.37c2.61,0,5.06.65,7.21,1.79"/>
    <rect class="cls-1" x="101.27" y="61.68" width="2.68" height="18.2" transform="translate(215.21 17.32) rotate(120)"/>
    <rect class="cls-1" x="109.18" y="61.8" width="2.68" height="32.17"/>
    <rect class="cls-1" x="117.74" y="61.68" width="2.68" height="18.2" transform="translate(120.84 -67.73) rotate(60)"/>
    <rect class="cls-1" x="104.73" y="92.53" width="2.68" height="18.2" transform="translate(59.46 -37.68) rotate(27.72)"/>
  </g>
</svg>